<svg xmlns="http://www.w3.org/2000/svg" width="297mm" height="210mm" viewBox="0 0 297 210">
  <rect width="297" height="210" fill="#fff"/>
  <rect x="8" y="8" width="18" height="18" fill="#000"/><rect x="17.00" y="11.00" width="3" height="3" fill="#fff"/><rect x="14.00" y="14.00" width="3" height="3" fill="#fff"/><rect x="17.00" y="14.00" width="3" height="3" fill="#fff"/><rect x="14.00" y="17.00" width="3" height="3" fill="#fff"/><rect x="17.00" y="17.00" width="3" height="3" fill="#fff"/><rect x="20.00" y="17.00" width="3" height="3" fill="#fff"/><rect x="11.00" y="20.00" width="3" height="3" fill="#fff"/><rect x="20.00" y="20.00" width="3" height="3" fill="#fff"/>
  <rect x="271" y="8" width="18" height="18" fill="#000"/><rect x="280.00" y="11.00" width="3" height="3" fill="#fff"/><rect x="274.00" y="14.00" width="3" height="3" fill="#fff"/><rect x="277.00" y="14.00" width="3" height="3" fill="#fff"/><rect x="283.00" y="14.00" width="3" height="3" fill="#fff"/><rect x="274.00" y="17.00" width="3" height="3" fill="#fff"/><rect x="277.00" y="17.00" width="3" height="3" fill="#fff"/><rect x="280.00" y="17.00" width="3" height="3" fill="#fff"/><rect x="283.00" y="17.00" width="3" height="3" fill="#fff"/><rect x="277.00" y="20.00" width="3" height="3" fill="#fff"/><rect x="280.00" y="20.00" width="3" height="3" fill="#fff"/>
  <rect x="8" y="184" width="18" height="18" fill="#000"/><rect x="17.00" y="187.00" width="3" height="3" fill="#fff"/><rect x="20.00" y="187.00" width="3" height="3" fill="#fff"/><rect x="11.00" y="193.00" width="3" height="3" fill="#fff"/><rect x="14.00" y="193.00" width="3" height="3" fill="#fff"/><rect x="20.00" y="193.00" width="3" height="3" fill="#fff"/><rect x="11.00" y="196.00" width="3" height="3" fill="#fff"/><rect x="14.00" y="196.00" width="3" height="3" fill="#fff"/><rect x="20.00" y="196.00" width="3" height="3" fill="#fff"/>
  <rect x="271" y="184" width="18" height="18" fill="#000"/><rect x="280.00" y="187.00" width="3" height="3" fill="#fff"/><rect x="283.00" y="187.00" width="3" height="3" fill="#fff"/><rect x="283.00" y="190.00" width="3" height="3" fill="#fff"/><rect x="274.00" y="193.00" width="3" height="3" fill="#fff"/><rect x="274.00" y="196.00" width="3" height="3" fill="#fff"/><rect x="277.00" y="196.00" width="3" height="3" fill="#fff"/><rect x="280.00" y="196.00" width="3" height="3" fill="#fff"/>
  <path d="M145.96 66.82 L144.69 69.13 L149.26 75.75 L149.26 82.39 L144.95 88.25 L140.89 90.30 L94.23 104.57 L69.89 109.67 L43.00 110.18 L42.75 112.48 L73.44 113.75 L135.81 124.96 L162.18 127.52 L157.89 131.86 L158.14 135.18 L165.23 134.65 L175.89 129.55 L223.56 125.47 L251.97 119.36 L254.25 117.58 L253.49 115.28 L241.31 113.75 L240.06 106.86 L234.47 98.19 L224.58 92.84 L177.41 88.25 L171.83 85.71 L155.10 70.90 Z" fill="#fff" stroke="#8a8a8a" stroke-width="1.6" stroke-linejoin="round"/>
  <path d="M242.00 113.84 L241.55 115.02 L239.55 120.22 L238.95 120.82 L237.24 122.53" fill="none" stroke="#c2c2c2" stroke-width="0.55" stroke-dasharray="2.2 2" stroke-linecap="round" stroke-linejoin="round"/>
  <path d="M169.71 132.51 L167.95 131.82 L163.35 130.02 L162.55 129.22 L161.52 128.19" fill="none" stroke="#c2c2c2" stroke-width="0.55" stroke-dasharray="2.2 2" stroke-linecap="round" stroke-linejoin="round"/>
  <path d="M98.43 118.24 L97.75 116.82 L95.15 111.42 L95.15 109.82 L96.35 107.82 L97.15 105.02 L97.57 103.55" fill="none" stroke="#c2c2c2" stroke-width="0.55" stroke-dasharray="2.2 2" stroke-linecap="round" stroke-linejoin="round"/>
  <path d="M149.26 80.11 L150.55 78.82 L151.35 78.02 L155.95 76.22 L159.53 74.82" fill="none" stroke="#c2c2c2" stroke-width="0.55" stroke-dasharray="2.2 2" stroke-linecap="round" stroke-linejoin="round"/>
  <text x="148.5" y="197" text-anchor="middle" font-family="Segoe UI, sans-serif" font-size="7" font-weight="600" fill="#444">Дельфин</text>
</svg>
