<svg xmlns="http://www.w3.org/2000/svg" width="297mm" height="210mm" viewBox="0 0 297 210">
  <rect width="297" height="210" fill="#fff"/>
  <rect x="8" y="8" width="18" height="18" fill="#000"/><rect x="11.00" y="14.00" width="3" height="3" fill="#fff"/><rect x="17.00" y="14.00" width="3" height="3" fill="#fff"/><rect x="20.00" y="14.00" width="3" height="3" fill="#fff"/><rect x="11.00" y="20.00" width="3" height="3" fill="#fff"/><rect x="17.00" y="20.00" width="3" height="3" fill="#fff"/><rect x="20.00" y="20.00" width="3" height="3" fill="#fff"/>
  <rect x="271" y="8" width="18" height="18" fill="#000"/><rect x="274.00" y="14.00" width="3" height="3" fill="#fff"/><rect x="277.00" y="14.00" width="3" height="3" fill="#fff"/><rect x="283.00" y="14.00" width="3" height="3" fill="#fff"/><rect x="280.00" y="17.00" width="3" height="3" fill="#fff"/><rect x="283.00" y="17.00" width="3" height="3" fill="#fff"/><rect x="283.00" y="20.00" width="3" height="3" fill="#fff"/>
  <rect x="8" y="184" width="18" height="18" fill="#000"/><rect x="20.00" y="187.00" width="3" height="3" fill="#fff"/><rect x="14.00" y="190.00" width="3" height="3" fill="#fff"/><rect x="11.00" y="193.00" width="3" height="3" fill="#fff"/><rect x="17.00" y="193.00" width="3" height="3" fill="#fff"/><rect x="20.00" y="193.00" width="3" height="3" fill="#fff"/><rect x="11.00" y="196.00" width="3" height="3" fill="#fff"/><rect x="17.00" y="196.00" width="3" height="3" fill="#fff"/>
  <rect x="271" y="184" width="18" height="18" fill="#000"/><rect x="283.00" y="187.00" width="3" height="3" fill="#fff"/><rect x="277.00" y="190.00" width="3" height="3" fill="#fff"/><rect x="283.00" y="190.00" width="3" height="3" fill="#fff"/><rect x="274.00" y="193.00" width="3" height="3" fill="#fff"/><rect x="277.00" y="193.00" width="3" height="3" fill="#fff"/><rect x="274.00" y="196.00" width="3" height="3" fill="#fff"/><rect x="283.00" y="196.00" width="3" height="3" fill="#fff"/>
  <path d="M169.59 39.90 L168.57 42.57 L171.02 53.65 L171.02 61.84 L168.97 73.73 L161.82 84.59 L154.85 89.10 L142.57 92.80 L139.90 96.69 L143.39 98.54 L64.96 100.80 L80.73 102.24 L143.39 103.46 L139.90 105.31 L142.57 109.20 L154.85 112.90 L161.82 117.41 L165.29 123.76 L169.38 128.67 L171.02 140.16 L171.02 148.35 L168.57 159.43 L169.59 162.10 L193.54 139.75 L203.99 122.74 L218.72 114.93 L232.04 113.50 L231.84 110.02 L220.36 110.02 L217.70 106.13 L217.30 103.26 L217.70 95.87 L219.76 92.60 L231.84 91.98 L232.04 88.50 L218.72 87.07 L203.99 79.26 L193.54 62.25 Z" fill="#fff" stroke="#8a8a8a" stroke-width="1.6" stroke-linejoin="round"/>
  <path d="M180.56 55.30 L181.96 55.10 L185.56 56.70 L189.44 58.42" fill="none" stroke="#c2c2c2" stroke-width="0.55" stroke-dasharray="2.2 2" stroke-linecap="round" stroke-linejoin="round"/>
  <path d="M215.39 85.31 L216.16 87.30 L218.16 92.50 L218.79 94.14" fill="none" stroke="#c2c2c2" stroke-width="0.55" stroke-dasharray="2.2 2" stroke-linecap="round" stroke-linejoin="round"/>
  <path d="M218.97 107.99 L218.36 109.50 L216.16 114.90 L215.44 116.67" fill="none" stroke="#c2c2c2" stroke-width="0.55" stroke-dasharray="2.2 2" stroke-linecap="round" stroke-linejoin="round"/>
  <path d="M189.03 143.96 L185.56 145.50 L181.96 147.10 L179.96 146.70 L174.36 144.30 L173.36 143.30 L172.36 140.70" fill="none" stroke="#c2c2c2" stroke-width="0.55" stroke-dasharray="2.2 2" stroke-linecap="round" stroke-linejoin="round"/>
  <path d="M172.36 60.70 L172.96 58.90 L173.96 57.90 L180.56 55.30 L184.45 53.77" fill="none" stroke="#c2c2c2" stroke-width="0.55" stroke-dasharray="2.2 2" stroke-linecap="round" stroke-linejoin="round"/>
  <text x="148.5" y="197" text-anchor="middle" font-family="Segoe UI, sans-serif" font-size="7" font-weight="600" fill="#444">Скат манта</text>
</svg>
